<svg width="45" height="44" viewBox="0 0 45 44" fill="none" xmlns="http://www.w3.org/2000/svg">
<path d="M1.73166 31.8403V41H4.96262C7.69211 41 9.27902 39.3115 9.27902 36.4043C9.27902 33.5225 7.68576 31.8403 4.96262 31.8403H1.73166ZM3.02658 32.9893H4.84201C6.80344 32.9893 7.96506 34.2588 7.96506 36.4233C7.96506 38.5942 6.82248 39.8511 4.84201 39.8511H3.02658V32.9893ZM10.771 41H12.0024V34.1255H10.771V41ZM11.3867 32.8179C11.8501 32.8179 12.2119 32.4688 12.2119 32.0244C12.2119 31.5737 11.8501 31.2246 11.3867 31.2246C10.9233 31.2246 10.5615 31.5737 10.5615 32.0244C10.5615 32.4688 10.9233 32.8179 11.3867 32.8179ZM13.5261 36.0361C13.5261 37.0454 14.1228 37.6167 15.4241 37.9214L16.6111 38.207C17.322 38.3784 17.6584 38.6704 17.6584 39.1147C17.6584 39.7114 17.03 40.1177 16.1477 40.1177C15.3035 40.1177 14.7766 39.7686 14.5989 39.2163H13.342C13.4626 40.3906 14.529 41.127 16.1096 41.127C17.7219 41.127 18.9216 40.27 18.9216 39.0068C18.9216 38.0103 18.2996 37.4517 16.9983 37.1406L15.8938 36.8804C15.1194 36.6963 14.7576 36.4233 14.7576 35.979C14.7576 35.4014 15.3606 35.0078 16.1413 35.0078C16.9412 35.0078 17.4553 35.3569 17.5886 35.8838H18.7947C18.655 34.7158 17.6457 33.9985 16.1477 33.9985C14.637 33.9985 13.5261 34.8618 13.5261 36.0361ZM23.7017 34.0049C22.7686 34.0049 21.9497 34.481 21.5244 35.2681H21.4229V34.1255H20.2358V43.2661H21.4736V39.9653H21.5752C21.9434 40.689 22.7305 41.1206 23.708 41.1206C25.4536 41.1206 26.5771 39.7241 26.5771 37.5596C26.5771 35.3887 25.4536 34.0049 23.7017 34.0049ZM23.3716 40.0225C22.1909 40.0225 21.4419 39.0767 21.4419 37.5659C21.4419 36.0488 22.1909 35.103 23.3779 35.103C24.5776 35.103 25.2949 36.0234 25.2949 37.5596C25.2949 39.1021 24.5776 40.0225 23.3716 40.0225ZM27.9548 41H29.1926V31.415H27.9548V41ZM33.103 40.0732C32.335 40.0732 31.77 39.686 31.77 39.0195C31.77 38.3721 32.2144 38.0293 33.211 37.9595L34.9693 37.8452V38.4482C34.9693 39.375 34.1695 40.0732 33.103 40.0732ZM32.8174 41.1206C33.7315 41.1206 34.4805 40.7207 34.9121 40.0098H35.0137V41H36.2007V36.2964C36.2007 34.8618 35.2486 33.9985 33.541 33.9985C32.0239 33.9985 30.9258 34.7412 30.7798 35.8774H32.0049C32.1572 35.3633 32.7031 35.0649 33.4903 35.0649C34.4614 35.0649 34.9693 35.5029 34.9693 36.2964V36.9058L33.0459 37.0264C31.4273 37.1216 30.5132 37.8325 30.5132 39.064C30.5132 40.3208 31.4907 41.1206 32.8174 41.1206ZM38.1878 43.4946C39.5017 43.4946 40.1048 42.9868 40.6951 41.3555L43.3167 34.1255H42.0027L40.2063 39.6924H40.0984L38.302 34.1255H36.9563L39.47 41.0127L39.3557 41.3872C39.0955 42.1553 38.7464 42.4473 38.1053 42.4473C37.9656 42.4473 37.7752 42.4409 37.6546 42.4155V43.4629C37.7942 43.4883 38.0545 43.4946 38.1878 43.4946Z" fill="#9E9FAC"/>
<path d="M22.1338 23C19.6861 23 17.7875 22.8675 16.3068 22.5385C14.8374 22.2119 13.8417 21.7052 13.1351 20.9986C12.4286 20.2921 11.9219 19.2963 11.5953 17.827C11.2662 16.3463 11.1338 14.4477 11.1338 12C11.1338 9.55232 11.2662 7.65366 11.5953 6.17298C11.9219 4.70365 12.4286 3.70794 13.1351 3.00136C13.8417 2.29478 14.8374 1.78807 16.3068 1.46153C17.7875 1.13246 19.6861 1 22.1338 1C24.5815 1 26.4801 1.13246 27.9608 1.46153C29.4301 1.78807 30.4259 2.29478 31.1324 3.00136C31.839 3.70794 32.3457 4.70365 32.6723 6.17298C33.0013 7.65366 33.1338 9.55232 33.1338 12C33.1338 14.4477 33.0013 16.3463 32.6723 17.827C32.3457 19.2963 31.839 20.2921 31.1324 20.9986C30.4259 21.7052 29.4301 22.2119 27.9608 22.5385C26.4801 22.8675 24.5815 23 22.1338 23Z" stroke="#9E9FAC" stroke-width="2" stroke-linecap="round" stroke-linejoin="round"/>
</svg>
