<svg width="46" height="44" viewBox="0 0 46 44" fill="none" xmlns="http://www.w3.org/2000/svg">
<path d="M1.59055 31.8403V41H4.89768C7.62717 41 9.20774 39.3179 9.20774 36.3916C9.20774 33.5098 7.61447 31.8403 4.89768 31.8403H1.59055ZM3.01242 33.1353H4.73899C6.63693 33.1353 7.76047 34.3413 7.76047 36.4106C7.76047 38.5117 6.65598 39.7051 4.73899 39.7051H3.01242V33.1353ZM10.7314 41H12.0898V34.0874H10.7314V41ZM11.4106 32.875C11.9184 32.875 12.2929 32.5132 12.2929 32.0435C12.2929 31.5674 11.9184 31.2056 11.4106 31.2056C10.9028 31.2056 10.5283 31.5674 10.5283 32.0435C10.5283 32.5132 10.9028 32.875 11.4106 32.875ZM13.677 36.0425C13.677 37.0708 14.2864 37.6611 15.6003 37.9722L16.8064 38.2515C17.4983 38.4165 17.822 38.6831 17.822 39.0957C17.822 39.6479 17.219 40.0288 16.3684 40.0288C15.5432 40.0288 15.0354 39.6987 14.864 39.1655H13.4993C13.6199 40.3906 14.6926 41.1333 16.3367 41.1333C17.9871 41.1333 19.1995 40.2637 19.1995 38.9624C19.1995 37.9468 18.5837 37.3818 17.2698 37.0771L16.1208 36.8105C15.3718 36.6392 15.0227 36.3789 15.0227 35.9663C15.0227 35.4268 15.6003 35.0649 16.3621 35.0649C17.1365 35.0649 17.6316 35.3887 17.7585 35.8965H19.0662C18.9329 34.6777 17.9172 33.9541 16.3621 33.9541C14.8005 33.9541 13.677 34.8174 13.677 36.0425ZM24.1699 33.9731C23.2305 33.9731 22.418 34.4429 21.999 35.23H21.8975V34.0874H20.5835V43.2407H21.9482V39.9526H22.0562C22.418 40.6826 23.1987 41.1143 24.1826 41.1143C25.9282 41.1143 27.0391 39.7368 27.0391 37.5405C27.0391 35.3442 25.9282 33.9731 24.1699 33.9731ZM23.7827 39.8892C22.6401 39.8892 21.9229 38.9878 21.9229 37.5469C21.9229 36.0996 22.6401 35.1982 23.7891 35.1982C24.9443 35.1982 25.6362 36.0806 25.6362 37.5405C25.6362 39.0068 24.9443 39.8892 23.7827 39.8892ZM28.4866 41H29.8513V31.3896H28.4866V41ZM33.9014 39.9653C33.1587 39.9653 32.6192 39.6035 32.6192 38.9814C32.6192 38.3721 33.0508 38.0483 34.003 37.9849L35.6914 37.877V38.4546C35.6914 39.3115 34.9297 39.9653 33.9014 39.9653ZM33.5523 41.1143C34.46 41.1143 35.2154 40.7207 35.628 40.0288H35.7359V41H37.0498V36.2773C37.0498 34.8174 36.0723 33.9541 34.3394 33.9541C32.7715 33.9541 31.6543 34.7158 31.5147 35.9028H32.835C32.9873 35.4141 33.5142 35.1348 34.2759 35.1348C35.209 35.1348 35.6914 35.5474 35.6914 36.2773V36.874L33.8189 36.9819C32.1748 37.0835 31.2481 37.8008 31.2481 39.0449C31.2481 40.3081 32.2193 41.1143 33.5523 41.1143ZM39.1892 43.5137C40.5984 43.5137 41.2522 42.9678 41.8426 41.2856L44.4197 34.0874H42.9724L41.2459 39.5781H41.138L39.4051 34.0874H37.9197L40.4207 41.0254L40.3191 41.3618C40.0843 42.0601 39.7161 42.333 39.0686 42.333C38.9417 42.333 38.7322 42.3267 38.6243 42.3076V43.4819C38.7513 43.5073 39.075 43.5137 39.1892 43.5137Z" fill="#242424"/>
<path fill-rule="evenodd" clip-rule="evenodd" d="M22.1338 24C12.2518 24 10.1338 21.882 10.1338 12C10.1338 2.118 12.2518 0 22.1338 0C32.0158 0 34.1338 2.118 34.1338 12C34.1338 21.882 32.0158 24 22.1338 24ZM17.1338 12C17.6861 12 18.1338 12.4477 18.1338 13V17C18.1338 17.5523 17.6861 18 17.1338 18C16.5815 18 16.1338 17.5523 16.1338 17V13C16.1338 12.4477 16.5815 12 17.1338 12ZM23.1338 7C23.1338 6.44771 22.6861 6 22.1338 6C21.5815 6 21.1338 6.44772 21.1338 7V17C21.1338 17.5523 21.5815 18 22.1338 18C22.6861 18 23.1338 17.5523 23.1338 17V7ZM27.1338 10C27.6861 10 28.1338 10.4477 28.1338 11V17C28.1338 17.5523 27.6861 18 27.1338 18C26.5815 18 26.1338 17.5523 26.1338 17V11C26.1338 10.4477 26.5815 10 27.1338 10Z" fill="#242424"/>
</svg>
