<svg width="44" height="44" viewBox="0 0 44 44" fill="none" xmlns="http://www.w3.org/2000/svg">
<path d="M9.05197 41V31.8403H7.75705V35.7505H2.90744V31.8403H1.61252V41H2.90744V36.8994H7.75705V41H9.05197ZM10.8804 41H12.1118V34.1255H10.8804V41ZM11.4961 32.8179C11.9595 32.8179 12.3213 32.4688 12.3213 32.0244C12.3213 31.5737 11.9595 31.2246 11.4961 31.2246C11.0327 31.2246 10.6709 31.5737 10.6709 32.0244C10.6709 32.4688 11.0327 32.8179 11.4961 32.8179ZM13.6355 36.0361C13.6355 37.0454 14.2322 37.6167 15.5334 37.9214L16.7204 38.207C17.4314 38.3784 17.7678 38.6704 17.7678 39.1147C17.7678 39.7114 17.1394 40.1177 16.2571 40.1177C15.4128 40.1177 14.886 39.7686 14.7082 39.2163H13.4514C13.572 40.3906 14.6384 41.127 16.219 41.127C17.8313 41.127 19.031 40.27 19.031 39.0068C19.031 38.0103 18.4089 37.4517 17.1077 37.1406L16.0032 36.8804C15.2288 36.6963 14.8669 36.4233 14.8669 35.979C14.8669 35.4014 15.47 35.0078 16.2507 35.0078C17.0505 35.0078 17.5647 35.3569 17.698 35.8838H18.904C18.7644 34.7158 17.7551 33.9985 16.2571 33.9985C14.7463 33.9985 13.6355 34.8618 13.6355 36.0361ZM20.7324 32.4307V34.1382H19.5898V35.1602H20.7324V39.1973C20.7324 40.5176 21.3164 41.0444 22.7827 41.0444C23.0239 41.0444 23.2524 41.019 23.4683 40.981V39.959C23.2715 39.978 23.1699 39.9844 22.9668 39.9844C22.2686 39.9844 21.9702 39.6543 21.9702 38.8862V35.1602H23.5381V34.1382H21.9702V32.4307H20.7324ZM27.5183 40.0352C26.2805 40.0352 25.5823 39.1274 25.5823 37.5596C25.5823 35.9917 26.2805 35.0903 27.5183 35.0903C28.7498 35.0903 29.448 35.9917 29.448 37.5596C29.448 39.1274 28.7498 40.0352 27.5183 40.0352ZM27.5183 41.127C29.5051 41.127 30.7302 39.7749 30.7302 37.5596C30.7302 35.3442 29.4988 33.9985 27.5183 33.9985C25.5315 33.9985 24.3064 35.3442 24.3064 37.5596C24.3064 39.7749 25.5315 41.127 27.5183 41.127ZM32.0381 41H33.2759V36.8296C33.2759 35.8647 34.0186 35.1855 35.0469 35.1855C35.2754 35.1855 35.6817 35.23 35.7769 35.2617V34.0493C35.6372 34.0239 35.3897 34.0049 35.1992 34.0049C34.2979 34.0049 33.5235 34.4873 33.3267 35.1602H33.2251V34.1255H32.0381V41ZM37.2815 43.4946C38.5955 43.4946 39.1985 42.9868 39.7888 41.3555L42.4104 34.1255H41.0965L39.3001 39.6924H39.1922L37.3958 34.1255H36.0501L38.5638 41.0127L38.4495 41.3872C38.1892 42.1553 37.8401 42.4473 37.199 42.4473C37.0594 42.4473 36.8689 42.4409 36.7483 42.4155V43.4629C36.888 43.4883 37.1482 43.4946 37.2815 43.4946Z" fill="#9E9FAC"/>
<path d="M21.1338 23C18.6861 23 16.7875 22.8675 15.3068 22.5385C13.8374 22.2119 12.8417 21.7052 12.1351 20.9986C11.4286 20.2921 10.9219 19.2963 10.5953 17.827C10.2662 16.3463 10.1338 14.4477 10.1338 12C10.1338 9.55232 10.2662 7.65366 10.5953 6.17298C10.9219 4.70365 11.4286 3.70794 12.1351 3.00136C12.8417 2.29478 13.8374 1.78807 15.3068 1.46153C16.7875 1.13246 18.6861 1 21.1338 1C23.5815 1 25.4801 1.13246 26.9608 1.46153C28.4301 1.78807 29.4259 2.29478 30.1324 3.00136C30.839 3.70794 31.3457 4.70365 31.6723 6.17298C32.0013 7.65366 32.1338 9.55232 32.1338 12C32.1338 14.4477 32.0013 16.3463 31.6723 17.827C31.3457 19.2963 30.839 20.2921 30.1324 20.9986C29.4259 21.7052 28.4301 22.2119 26.9608 22.5385C25.4801 22.8675 23.5815 23 21.1338 23Z" stroke="#9E9FAC" stroke-width="2" stroke-linecap="round" stroke-linejoin="round"/>
</svg>
