<svg width="45" height="44" viewBox="0 0 45 44" fill="none" xmlns="http://www.w3.org/2000/svg">
<path d="M8.92356 41V31.8403H7.50803V35.687H2.80441V31.8403H1.38254V41H2.80441V36.9819H7.50803V41H8.92356ZM10.8281 41H12.1865V34.0874H10.8281V41ZM11.5073 32.875C12.0151 32.875 12.3896 32.5132 12.3896 32.0435C12.3896 31.5674 12.0151 31.2056 11.5073 31.2056C10.9995 31.2056 10.625 31.5674 10.625 32.0435C10.625 32.5132 10.9995 32.875 11.5073 32.875ZM13.7737 36.0425C13.7737 37.0708 14.383 37.6611 15.697 37.9722L16.9031 38.2515C17.595 38.4165 17.9187 38.6831 17.9187 39.0957C17.9187 39.6479 17.3157 40.0288 16.4651 40.0288C15.6399 40.0288 15.1321 39.6987 14.9607 39.1655H13.5959C13.7165 40.3906 14.7893 41.1333 16.4333 41.1333C18.0837 41.1333 19.2961 40.2637 19.2961 38.9624C19.2961 37.9468 18.6804 37.3818 17.3664 37.0771L16.2175 36.8105C15.4685 36.6392 15.1194 36.3789 15.1194 35.9663C15.1194 35.4268 15.697 35.0649 16.4587 35.0649C17.2331 35.0649 17.7283 35.3887 17.8552 35.8965H19.1628C19.0295 34.6777 18.0139 33.9541 16.4587 33.9541C14.8972 33.9541 13.7737 34.8174 13.7737 36.0425ZM21.1118 32.4116V34.1191H19.9756V35.2681H21.1118V39.1719C21.1118 40.5049 21.7148 41.0381 23.2319 41.0381C23.4985 41.0381 23.7461 41.0063 23.9619 40.9683V39.832C23.7715 39.8511 23.6636 39.8638 23.4541 39.8638C22.7749 39.8638 22.4766 39.5464 22.4766 38.8228V35.2681H24.0254V34.1191H22.4766V32.4116H21.1118ZM28.1643 39.9209C26.9773 39.9209 26.3108 39.0513 26.3108 37.5405C26.3108 36.0425 26.9773 35.1665 28.1643 35.1665C29.345 35.1665 30.0178 36.0425 30.0178 37.5405C30.0178 39.0449 29.345 39.9209 28.1643 39.9209ZM28.1643 41.1333C30.1829 41.1333 31.4207 39.7812 31.4207 37.5405C31.4207 35.3125 30.1765 33.9541 28.1643 33.9541C26.1458 33.9541 24.9016 35.3125 24.9016 37.5405C24.9016 39.7812 26.1394 41.1333 28.1643 41.1333ZM32.8047 41H34.1695V36.9185C34.1695 35.9473 34.8994 35.2935 35.9278 35.2935C36.1563 35.2935 36.5752 35.3379 36.6831 35.376V34.0303C36.5371 33.9922 36.2769 33.9731 36.0801 33.9731C35.1787 33.9731 34.417 34.4683 34.2202 35.1475H34.1187V34.0874H32.8047V41ZM38.3972 43.5137C39.8064 43.5137 40.4602 42.9678 41.0506 41.2856L43.6277 34.0874H42.1805L40.4539 39.5781H40.346L38.6131 34.0874H37.1277L39.6287 41.0254L39.5271 41.3618C39.2923 42.0601 38.9241 42.333 38.2766 42.333C38.1497 42.333 37.9402 42.3267 37.8323 42.3076V43.4819C37.9593 43.5073 38.283 43.5137 38.3972 43.5137Z" fill="#242424"/>
<path fill-rule="evenodd" clip-rule="evenodd" d="M22.1338 24C12.2518 24 10.1338 21.882 10.1338 12C10.1338 2.118 12.2518 0 22.1338 0C32.0158 0 34.1338 2.118 34.1338 12C34.1338 21.882 32.0158 24 22.1338 24ZM21.1338 6C21.1338 5.44769 21.5815 5 22.1338 5C22.686 5 23.1338 5.44769 23.1338 6V11H28.1338C28.686 11 29.1338 11.4477 29.1338 12C29.1338 12.5523 28.686 13 28.1338 13H22.1338C21.5815 13 21.1338 12.5523 21.1338 12V6Z" fill="#242424"/>
</svg>
