<svg width="41" height="44" viewBox="0 0 41 44" fill="none" xmlns="http://www.w3.org/2000/svg">
<path d="M1.25535 38.5371C1.35691 40.1748 2.72166 41.2222 4.75291 41.2222C6.92381 41.2222 8.28221 40.124 8.28221 38.3721C8.28221 36.9946 7.50779 36.2329 5.62889 35.7949L4.61961 35.5474C3.42625 35.2681 2.94383 34.8936 2.94383 34.2397C2.94383 33.4146 3.69285 32.875 4.81639 32.875C5.88279 32.875 6.61912 33.4019 6.75242 34.2461H8.13621C8.05369 32.7036 6.69529 31.6182 4.83543 31.6182C2.83592 31.6182 1.50291 32.7036 1.50291 34.335C1.50291 35.6807 2.25828 36.4805 3.91502 36.8677L5.09568 37.1533C6.30809 37.439 6.84129 37.8579 6.84129 38.5562C6.84129 39.3687 6.0034 39.959 4.86082 39.959C3.63572 39.959 2.78514 39.4067 2.66453 38.5371H1.25535ZM13.3225 33.9731C12.383 33.9731 11.5705 34.4429 11.1516 35.23H11.05V34.0874H9.73607V43.2407H11.1008V39.9526H11.2087C11.5705 40.6826 12.3513 41.1143 13.3352 41.1143C15.0808 41.1143 16.1916 39.7368 16.1916 37.5405C16.1916 35.3442 15.0808 33.9731 13.3225 33.9731ZM12.9353 39.8892C11.7927 39.8892 11.0754 38.9878 11.0754 37.5469C11.0754 36.0996 11.7927 35.1982 12.9416 35.1982C14.0969 35.1982 14.7888 36.0806 14.7888 37.5405C14.7888 39.0068 14.0969 39.8892 12.9353 39.8892ZM20.4131 35.1157C21.4224 35.1157 22.0825 35.8203 22.1143 36.9058H18.623C18.6992 35.8267 19.4038 35.1157 20.4131 35.1157ZM22.1079 39.1338C21.854 39.6733 21.2891 39.9717 20.4639 39.9717C19.3721 39.9717 18.6675 39.2036 18.623 37.9912V37.915H23.5044V37.439C23.5044 35.2681 22.3428 33.9541 20.4194 33.9541C18.4707 33.9541 17.2329 35.3569 17.2329 37.5659C17.2329 39.7749 18.4453 41.1333 20.4258 41.1333C22.0063 41.1333 23.1108 40.3716 23.4219 39.1338H22.1079ZM24.8821 41H26.2468V36.9565C26.2468 35.8774 26.9197 35.2046 28.0178 35.2046C29.0335 35.2046 29.5286 35.7568 29.5286 36.8677V41H30.8933V36.5249C30.8933 34.8809 30.0237 33.9541 28.4812 33.9541C27.4402 33.9541 26.634 34.4175 26.2976 35.1855H26.1961V34.0874H24.8821V41ZM35.083 41.1143C36.0352 41.1143 36.8413 40.6636 37.2539 39.9082H37.3618V41H38.6695V31.3896H37.3047V35.1855H37.2031C36.8286 34.4238 36.0288 33.9731 35.083 33.9731C33.3374 33.9731 32.2139 35.3569 32.2139 37.5405C32.2139 39.7305 33.3247 41.1143 35.083 41.1143ZM35.4702 35.1982C36.6128 35.1982 37.3301 36.106 37.3301 37.5469C37.3301 38.9941 36.6192 39.8892 35.4702 39.8892C34.315 39.8892 33.6231 39.0068 33.6231 37.5405C33.6231 36.0869 34.3213 35.1982 35.4702 35.1982Z" fill="#242424"/>
<path fill-rule="evenodd" clip-rule="evenodd" d="M21.1338 24C11.2518 24 9.13379 21.882 9.13379 12C9.13379 2.118 11.2518 0 21.1338 0C31.0158 0 33.1338 2.118 33.1338 12C33.1338 21.882 31.0158 24 21.1338 24Z" fill="#242424"/>
<path d="M21.1265 18.1572C21.3535 18.1572 21.522 18.0034 21.522 17.7544V16.8462C23.4849 16.7144 24.9717 15.6597 24.9717 13.8359C24.9717 12.2539 23.9243 11.4629 21.9688 11.0088L21.522 10.9062V8.05713C22.2837 8.15967 22.7817 8.5625 23.082 9.25098C23.2725 9.63916 23.5435 9.85156 23.9536 9.85156C24.437 9.85156 24.7593 9.55859 24.7593 9.12646C24.7593 8.9873 24.7373 8.85547 24.7007 8.71631C24.3491 7.54443 23.1553 6.70947 21.522 6.58496V5.66211C21.522 5.41309 21.3535 5.25928 21.1265 5.25928C20.8994 5.25928 20.731 5.41309 20.731 5.66211V6.58496C18.8047 6.70947 17.4204 7.81543 17.4204 9.50732C17.4204 11.0381 18.4458 11.8877 20.3281 12.3198L20.731 12.415V15.3813C19.7422 15.2788 19.2441 14.8101 19.0024 14.1729C18.8267 13.7627 18.5483 13.5649 18.1528 13.5649C17.6401 13.5649 17.3252 13.8799 17.3252 14.3413C17.3252 14.4731 17.3472 14.6123 17.3984 14.7588C17.75 15.916 19.0024 16.7437 20.731 16.8462V17.7544C20.731 18.0034 20.8994 18.1572 21.1265 18.1572ZM19.1855 9.36084C19.1855 8.71631 19.7202 8.16699 20.731 8.0498V10.7231C19.625 10.4375 19.1855 9.99805 19.1855 9.36084ZM23.2139 14.019C23.2139 14.7515 22.6865 15.2935 21.522 15.3813V12.5981C22.8037 12.9131 23.2139 13.3086 23.2139 14.019Z" fill="white"/>
</svg>
