<svg width="40" height="44" viewBox="0 0 40 44" fill="none" xmlns="http://www.w3.org/2000/svg">
<path d="M1.1616 38.5752C1.26951 40.1812 2.62791 41.2222 4.61473 41.2222C6.74754 41.2222 8.09324 40.1367 8.09324 38.4229C8.09324 37.0581 7.32518 36.3091 5.43992 35.8521L4.44969 35.6045C3.22459 35.2998 2.73582 34.9062 2.73582 34.2144C2.73582 33.3384 3.51023 32.7607 4.6782 32.7607C5.77635 32.7607 6.53172 33.3003 6.67772 34.2017H7.95359C7.86473 32.6909 6.52537 31.6182 4.70359 31.6182C2.73582 31.6182 1.41551 32.6909 1.41551 34.2778C1.41551 35.5981 2.15184 36.3726 3.81492 36.7788L4.98924 37.0708C6.22703 37.3755 6.77928 37.8389 6.77928 38.5815C6.77928 39.4448 5.90965 40.0732 4.72264 40.0732C3.4658 40.0732 2.58348 39.4893 2.45018 38.5752H1.1616ZM12.9431 34.0049C12.01 34.0049 11.1912 34.481 10.7659 35.2681H10.6643V34.1255H9.47729V43.2661H10.7151V39.9653H10.8166C11.1848 40.689 11.9719 41.1206 12.9495 41.1206C14.6951 41.1206 15.8186 39.7241 15.8186 37.5596C15.8186 35.3887 14.6951 34.0049 12.9431 34.0049ZM12.613 40.0225C11.4324 40.0225 10.6833 39.0767 10.6833 37.5659C10.6833 36.0488 11.4324 35.103 12.6194 35.103C13.8191 35.103 14.5364 36.0234 14.5364 37.5596C14.5364 39.1021 13.8191 40.0225 12.613 40.0225ZM19.9321 35.0522C20.9731 35.0522 21.665 35.8076 21.6904 36.9629H18.0723C18.1548 35.814 18.8848 35.0522 19.9321 35.0522ZM21.6777 39.1846C21.4048 39.7622 20.8271 40.0732 19.9766 40.0732C18.853 40.0732 18.123 39.2544 18.0723 37.9658V37.9087H22.9727V37.458C22.9727 35.3125 21.8301 33.9985 19.9385 33.9985C18.0215 33.9985 16.8027 35.395 16.8027 37.5723C16.8027 39.7622 18.0024 41.127 19.9448 41.127C21.4873 41.127 22.5664 40.3906 22.8901 39.1846H21.6777ZM24.2932 41H25.531V36.9502C25.531 35.8076 26.2293 35.103 27.3718 35.103C28.4192 35.103 28.927 35.6743 28.927 36.8486V41H30.1648V36.5503C30.1648 34.9126 29.3079 33.9985 27.7654 33.9985C26.718 33.9985 25.9182 34.4492 25.5818 35.2109H25.4802V34.1255H24.2932V41ZM34.291 41.1206C35.2432 41.1206 36.0493 40.6699 36.4746 39.9082H36.5762V41H37.7632V31.415H36.5254V35.2109H36.4238C36.043 34.4556 35.2432 34.0049 34.291 34.0049C32.5518 34.0049 31.4219 35.4014 31.4219 37.5596C31.4219 39.7305 32.5391 41.1206 34.291 41.1206ZM34.6148 35.103C35.8081 35.103 36.5508 36.0552 36.5508 37.5659C36.5508 39.083 35.8145 40.0225 34.6148 40.0225C33.4151 40.0225 32.6978 39.1021 32.6978 37.5596C32.6978 36.0298 33.4214 35.103 34.6148 35.103Z" fill="#9E9FAC"/>
<path d="M19.9353 17.8979C20.1624 17.8979 20.3308 17.7441 20.3308 17.4951V16.5869C22.2937 16.4551 23.7805 15.4004 23.7805 13.5767C23.7805 11.9946 22.7332 11.2036 20.7776 10.7495L20.3308 10.647V7.79785C21.0925 7.90039 21.5906 8.30322 21.8909 8.9917C22.0813 9.37988 22.3523 9.59229 22.7625 9.59229C23.2458 9.59229 23.5681 9.29932 23.5681 8.86719C23.5681 8.72803 23.5461 8.59619 23.5095 8.45703C23.158 7.28516 21.9641 6.4502 20.3308 6.32568V5.40283C20.3308 5.15381 20.1624 5 19.9353 5C19.7083 5 19.5398 5.15381 19.5398 5.40283V6.32568C17.6135 6.4502 16.2292 7.55615 16.2292 9.24805C16.2292 10.7788 17.2546 11.6284 19.137 12.0605L19.5398 12.1558V15.1221C18.551 15.0195 18.053 14.5508 17.8113 13.9136C17.6355 13.5034 17.3572 13.3057 16.9617 13.3057C16.449 13.3057 16.134 13.6206 16.134 14.082C16.134 14.2139 16.156 14.353 16.2073 14.4995C16.5588 15.6567 17.8113 16.4844 19.5398 16.5869V17.4951C19.5398 17.7441 19.7083 17.8979 19.9353 17.8979ZM17.9944 9.10156C17.9944 8.45703 18.5291 7.90771 19.5398 7.79053V10.4639C18.4338 10.1782 17.9944 9.73877 17.9944 9.10156ZM22.0227 13.7598C22.0227 14.4922 21.4954 15.0342 20.3308 15.1221V12.3389C21.6125 12.6538 22.0227 13.0493 22.0227 13.7598Z" fill="#9E9FAC"/>
<path d="M20.1338 23C17.6861 23 15.7875 22.8675 14.3068 22.5385C12.8374 22.2119 11.8417 21.7052 11.1351 20.9986C10.4286 20.2921 9.92186 19.2963 9.59532 17.827C9.26625 16.3463 9.13379 14.4477 9.13379 12C9.13379 9.55232 9.26625 7.65366 9.59532 6.17298C9.92186 4.70365 10.4286 3.70794 11.1351 3.00136C11.8417 2.29478 12.8374 1.78807 14.3068 1.46153C15.7875 1.13246 17.6861 1 20.1338 1C22.5815 1 24.4801 1.13246 25.9608 1.46153C27.4301 1.78807 28.4259 2.29478 29.1324 3.00136C29.839 3.70794 30.3457 4.70365 30.6723 6.17298C31.0013 7.65366 31.1338 9.55232 31.1338 12C31.1338 14.4477 31.0013 16.3463 30.6723 17.827C30.3457 19.2963 29.839 20.2921 29.1324 20.9986C28.4259 21.7052 27.4301 22.2119 25.9608 22.5385C24.4801 22.8675 22.5815 23 20.1338 23Z" stroke="#9E9FAC" stroke-width="2" stroke-linecap="round" stroke-linejoin="round"/>
</svg>
