<svg width="120" height="120" viewBox="0 0 120 120" fill="none" xmlns="http://www.w3.org/2000/svg">
<g filter="url(#filter0_f_29_228)">
<circle cx="60" cy="60" r="42" fill="#242424" fill-opacity="0.25"/>
</g>
<circle cx="60" cy="52" r="45" fill="#242424"/>
<path d="M72.9976 58.884C72.9976 61.2633 72.1376 63.3273 70.4176 65.076C68.7263 66.796 66.2609 67.8997 63.0216 68.387V73.16H57.8616V68.559C55.7116 68.4157 53.6763 68.0573 51.7556 67.484C49.8349 66.882 48.2439 66.151 46.9826 65.291L49.7776 59.013C51.1249 59.9017 52.6873 60.6183 54.4646 61.163C56.2419 61.7077 57.9906 61.98 59.7106 61.98C62.9786 61.98 64.6126 61.163 64.6126 59.529C64.6126 58.669 64.1396 58.0383 63.1936 57.637C62.2763 57.207 60.7856 56.7627 58.7216 56.304C56.4569 55.8167 54.5649 55.3007 53.0456 54.756C51.5263 54.1827 50.2219 53.2797 49.1326 52.047C48.0433 50.8143 47.4986 49.1517 47.4986 47.059C47.4986 44.5937 48.3873 42.4867 50.1646 40.738C51.9419 38.9607 54.5076 37.8713 57.8616 37.47V32.74H63.0216V37.384C64.6556 37.5273 66.2179 37.814 67.7086 38.244C69.2279 38.674 70.5753 39.233 71.7506 39.921L69.1276 46.242C66.2609 44.694 63.4803 43.92 60.7856 43.92C59.0943 43.92 57.8616 44.178 57.0876 44.694C56.3136 45.1813 55.9266 45.8263 55.9266 46.629C55.9266 47.4317 56.3853 48.0337 57.3026 48.435C58.2199 48.8363 59.6963 49.252 61.7316 49.682C64.0249 50.1693 65.9169 50.6997 67.4076 51.273C68.9269 51.8177 70.2313 52.7063 71.3206 53.939C72.4386 55.143 72.9976 56.7913 72.9976 58.884Z" fill="white"/>
<defs>
<filter id="filter0_f_29_228" x="0" y="0" width="120" height="120" filterUnits="userSpaceOnUse" color-interpolation-filters="sRGB">
<feFlood flood-opacity="0" result="BackgroundImageFix"/>
<feBlend mode="normal" in="SourceGraphic" in2="BackgroundImageFix" result="shape"/>
<feGaussianBlur stdDeviation="9" result="effect1_foregroundBlur_29_228"/>
</filter>
</defs>
</svg>
